<svg xmlns="http://www.w3.org/2000/svg" width="128" height="128" viewBox="0 0 128 128">
  <title>TRAFFIC LIGHT</title>
  <g>
    <rect x="47.371" y="31.398" width="33.257" height="73.115" rx="5.215" fill="#403491"/>
    <path d="M57.942,23.487H70.058a4.1,4.1,0,0,1,4.1,4.1V31.4a0,0,0,0,1,0,0H53.847a0,0,0,0,1,0,0V27.582A4.1,4.1,0,0,1,57.942,23.487Z" fill="#2d1f5e"/>
    <circle cx="64" cy="46.461" r="7.914" fill="#ff5959"/>
    <circle cx="64" cy="67.956" r="7.914" fill="#f9d16e"/>
    <circle cx="64" cy="89.45" r="7.914" fill="#4f9da6"/>
    <path d="M80.629,41h8.5a2.423,2.423,0,0,1,2.423,2.423v0a8.5,8.5,0,0,1-8.5,8.5H80.629a0,0,0,0,1,0,0V41A0,0,0,0,1,80.629,41Z" fill="#2d1f5e"/>
    <path d="M80.629,62.493h8.5a2.423,2.423,0,0,1,2.423,2.423v0a8.5,8.5,0,0,1-8.5,8.5H80.629a0,0,0,0,1,0,0V62.493A0,0,0,0,1,80.629,62.493Z" fill="#2d1f5e"/>
    <path d="M80.629,83.988h8.5a2.423,2.423,0,0,1,2.423,2.423v0a8.5,8.5,0,0,1-8.5,8.5H80.629a0,0,0,0,1,0,0V83.988A0,0,0,0,1,80.629,83.988Z" fill="#2d1f5e"/>
    <path d="M36.447,41H38.87a8.5,8.5,0,0,1,8.5,8.5v0a2.423,2.423,0,0,1-2.423,2.423h-8.5a0,0,0,0,1,0,0V41a0,0,0,0,1,0,0Z" transform="translate(83.818 92.922) rotate(-180)" fill="#2d1f5e"/>
    <path d="M36.447,62.493H38.87a8.5,8.5,0,0,1,8.5,8.5v0a2.423,2.423,0,0,1-2.423,2.423h-8.5a0,0,0,0,1,0,0V62.493a0,0,0,0,1,0,0Z" transform="translate(83.818 135.911) rotate(180)" fill="#2d1f5e"/>
    <path d="M36.447,83.988H38.87a8.5,8.5,0,0,1,8.5,8.5v0a2.423,2.423,0,0,1-2.423,2.423h-8.5a0,0,0,0,1,0,0V83.988a0,0,0,0,1,0,0Z" transform="translate(83.818 178.9) rotate(180)" fill="#2d1f5e"/>
  </g>
</svg>
